<?xml version="1.0" standalone="no"?>
<!DOCTYPE svg PUBLIC "-//W3C//DTD SVG 20010904//EN"
 "http://www.w3.org/TR/2001/REC-SVG-20010904/DTD/svg10.dtd">
<svg version="1.0" xmlns="http://www.w3.org/2000/svg"
 width="243.000000pt" height="243.000000pt" viewBox="0 0 243.000000 243.000000"
 preserveAspectRatio="xMidYMid meet">

<g transform="translate(0.000000,243.000000) scale(0.100000,-0.100000)"
fill="#000000" stroke="none">
<path d="M0 1215 l0 -1215 1215 0 1215 0 0 1215 0 1215 -1215 0 -1215 0 0
-1215z m990 760 c85 -21 257 -64 382 -96 125 -33 230 -59 233 -59 3 0 5 -273
5 -608 l0 -607 -394 -99 c-217 -54 -399 -95 -405 -92 -12 8 -16 1542 -5 1584
4 13 12 21 18 19 7 -3 81 -22 166 -42z"/>
</g>
</svg>
